<?xml version="1.0" encoding="UTF-8"?>
<svg id="Layer_2" data-name="Layer 2" xmlns="http://www.w3.org/2000/svg" viewBox="0 0 778.29 218.66">
  <g id="Layer_1-2" data-name="Layer 1">
    <g>
      <rect x="199.09" y="2.97" width="57.82" height="212.72"/>
      <rect x="228.87" y="80.42" width="212.72" height="57.82" transform="translate(105.93 377.2) rotate(-67.5)"/>
      <rect x="374.8" y="79.52" width="212.73" height="57.82" transform="translate(-4.87 192.4) rotate(-22.5)"/>
      <path d="M106.1,215.71c-28.34,0-54.99-11.04-75.03-31.08C11.04,164.6,0,137.95,0,109.61S11.04,54.62,31.08,34.58C51.11,14.55,77.76,3.51,106.1,3.51s54.99,11.04,75.03,31.08l-40.89,40.89c-9.12-9.12-21.24-14.14-34.14-14.14s-25.02,5.02-34.14,14.14c-9.12,9.12-14.14,21.24-14.14,34.14s5.02,25.02,14.14,34.14c9.12,9.12,21.24,14.14,34.14,14.14s25.02-5.02,34.14-14.14l40.89,40.89c-20.04,20.04-46.68,31.08-75.03,31.08Z"/>
      <path d="M703.26,215.71c-28.34,0-54.99-11.04-75.03-31.08-20.04-20.04-31.08-46.69-31.08-75.03s11.04-54.98,31.08-75.02c20.04-20.04,46.69-31.08,75.03-31.08s54.99,11.04,75.03,31.08l-40.89,40.89c-9.12-9.12-21.24-14.14-34.14-14.14s-25.02,5.02-34.14,14.14c-9.12,9.12-14.14,21.24-14.14,34.14s5.02,25.02,14.14,34.14c9.12,9.12,21.24,14.14,34.14,14.14s25.02-5.02,34.14-14.14l40.89,40.89c-20.04,20.04-46.68,31.08-75.03,31.08Z"/>
    </g>
  </g>
</svg>